<svg width="25" height="25" viewBox="0 0 25 25" fill="none" xmlns="http://www.w3.org/2000/svg">
<path d="M12.5 0C19.4025 0 25 5.5975 25 12.5C25 19.4025 19.4025 25 12.5 25C5.5975 25 0 19.4025 0 12.5C0 5.5975 5.5975 0 12.5 0ZM5.36556 15.4593C5.40028 16.2233 5.52177 16.745 5.69916 17.2016C6.07204 18.1658 6.83422 18.928 7.79839 19.3008C8.25481 19.4782 8.77666 19.5995 9.54056 19.6344C10.306 19.6693 10.5505 19.6777 12.4998 19.6777C14.4493 19.6777 14.6936 19.6693 15.4593 19.6344C16.2231 19.5995 16.745 19.4782 17.2014 19.3008C17.6805 19.1206 18.1143 18.8381 18.4729 18.4729C18.8379 18.1145 19.1204 17.6805 19.3007 17.2016C19.478 16.7452 19.5995 16.2233 19.6342 15.4594C19.6695 14.6938 19.6777 14.4493 19.6777 12.5C19.6777 10.5507 19.6695 10.3062 19.6344 9.54075C19.5997 8.77666 19.4784 8.255 19.301 7.79839C19.1208 7.31945 18.8381 6.88553 18.4729 6.52714C18.1145 6.16188 17.6805 5.8794 17.2016 5.69916C16.745 5.52177 16.2233 5.40047 15.4593 5.36556C14.6938 5.33066 14.4493 5.32227 12.5 5.32227C10.5507 5.32227 10.3062 5.33066 9.54075 5.36575C8.77666 5.40047 8.255 5.52177 7.79839 5.69897C7.31945 5.87921 6.88553 6.16188 6.52695 6.52714C6.16188 6.88572 5.87921 7.31945 5.69916 7.79839C5.52158 8.255 5.40028 8.77666 5.36537 9.54075C5.33047 10.3062 5.32227 10.5507 5.32227 12.5C5.32227 14.4493 5.33047 14.6938 5.36556 15.4593Z" fill="#999999"/>
</svg>
